<svg width="100" height="100" viewBox="0 0 100 100" fill="none" xmlns="http://www.w3.org/2000/svg">
<path d="M67.2501 36.6249L67.1667 36.6666C68.1251 37.7916 68.9584 39.1249 69.5834 40.4999L69.9584 41.2916C72.9167 48.3333 70.8334 56.4583 65.3751 61.5416C60.4167 66.0833 53.5001 67.2916 47.0834 66.4582C41.0001 65.7082 35.4167 61.8749 32.2084 56.5832C31.2501 54.9582 30.4167 53.1249 30.0001 51.2499C29.4584 49.7083 29.2917 48.2082 29.1667 46.6666C28.7917 39.9999 31.4584 32.9166 36.5001 28.7499C34.2084 33.7916 34.7501 40.0833 38.1251 44.4583L38.5834 44.9999C39.1667 45.4999 39.8751 45.6666 40.5417 45.3749C41.1667 45.1249 41.6667 44.4999 41.6667 43.7499L41.3751 42.8333C37.7084 33.1666 40.7917 21.8749 48.5834 15.4999C50.7084 13.7499 53.3334 12.1666 56.0834 11.4583C53.2501 17.1249 54.1667 24.5416 58.7084 28.9999C60.6251 30.9583 62.9167 32.2499 64.9167 34.0833L67.2501 36.6249ZM57.7501 55.9583L57.7084 55.9166C59.5834 54.2916 60.6251 51.4999 60.5417 48.9999L60.4167 47.6666C59.5834 43.4999 55.9584 42.1249 53.6251 39.0833C52.9167 38.1666 52.2917 36.9999 51.8334 35.8333C50.9167 37.9166 50.8334 39.8749 51.2084 42.1249C51.6251 44.4999 52.5834 46.5416 52.0834 48.9999C51.4167 51.7083 49.2917 54.4166 45.5834 55.2916C47.6667 57.3333 51.0417 58.9582 54.4167 57.7916C55.5001 57.4999 56.8751 56.7083 57.7501 55.9583ZM45.8334 74.9999V79.1666C45.8334 81.4583 47.7084 83.3333 50.0001 83.3333C52.2917 83.3333 54.1667 81.4583 54.1667 79.1666V74.9999H62.5001V79.1666C62.5001 81.4583 64.3751 83.3333 66.6667 83.3333C68.9584 83.3333 70.8334 81.4583 70.8334 79.1666V74.9999C75.4584 74.9999 83.3334 78.7499 83.3334 83.3333V91.6666H16.6667V83.3333C16.6667 78.7499 24.5834 74.9999 29.1667 74.9999V79.1666C29.1667 81.4583 31.0417 83.3333 33.3334 83.3333C35.6251 83.3333 37.5001 81.4583 37.5001 79.1666V74.9999H45.8334Z" fill="white"/>
</svg>
