<svg width="75" height="75" viewBox="0 0 75 75" fill="none" xmlns="http://www.w3.org/2000/svg">
<path d="M47.9167 36.4583C49.375 36.4583 50.6069 35.9542 51.6125 34.9458C52.6208 33.9403 53.125 32.7083 53.125 31.25C53.125 29.7917 52.6208 28.5597 51.6125 27.5542C50.6069 26.5458 49.375 26.0417 47.9167 26.0417C46.4583 26.0417 45.2264 26.5458 44.2208 27.5542C43.2125 28.5597 42.7083 29.7917 42.7083 31.25C42.7083 32.7083 43.2125 33.9403 44.2208 34.9458C45.2264 35.9542 46.4583 36.4583 47.9167 36.4583ZM27.0833 36.4583C28.5417 36.4583 29.7736 35.9542 30.7792 34.9458C31.7875 33.9403 32.2917 32.7083 32.2917 31.25C32.2917 29.7917 31.7875 28.5597 30.7792 27.5542C29.7736 26.5458 28.5417 26.0417 27.0833 26.0417C25.625 26.0417 24.3931 26.5458 23.3875 27.5542C22.3792 28.5597 21.875 29.7917 21.875 31.25C21.875 32.7083 22.3792 33.9403 23.3875 34.9458C24.3931 35.9542 25.625 36.4583 27.0833 36.4583ZM37.5 58.3333C41.6667 58.3333 45.4347 57.1875 48.8042 54.8958C52.1708 52.6042 54.6528 49.5833 56.25 45.8333H18.75C20.3472 49.5833 22.8306 52.6042 26.2 54.8958C29.5667 57.1875 33.3333 58.3333 37.5 58.3333ZM37.5 75C32.2917 75 27.4139 74.0111 22.8667 72.0333C18.3167 70.0528 14.3583 67.3778 10.9917 64.0083C7.62222 60.6417 4.94722 56.6833 2.96667 52.1333C0.988888 47.5861 0 42.7083 0 37.5C0 32.2917 0.988888 27.4125 2.96667 22.8625C4.94722 18.3153 7.62222 14.3569 10.9917 10.9875C14.3583 7.62083 18.3167 4.94722 22.8667 2.96667C27.4139 0.988888 32.2917 0 37.5 0C42.7083 0 47.5875 0.988888 52.1375 2.96667C56.6847 4.94722 60.6431 7.62083 64.0125 10.9875C67.3792 14.3569 70.0528 18.3153 72.0333 22.8625C74.0111 27.4125 75 32.2917 75 37.5C75 42.7083 74.0111 47.5861 72.0333 52.1333C70.0528 56.6833 67.3792 60.6417 64.0125 64.0083C60.6431 67.3778 56.6847 70.0528 52.1375 72.0333C47.5875 74.0111 42.7083 75 37.5 75ZM39.1667 22.9167C40.3472 22.9167 41.6847 22.6903 43.1792 22.2375C44.6708 21.7875 45.4167 20.7639 45.4167 19.1667C45.4167 18.3333 45.1389 17.6042 44.5833 16.9792C44.0278 16.3542 43.3333 16.0417 42.5 16.0417C41.9444 16.0417 41.4056 16.1458 40.8833 16.3542C40.3639 16.5625 39.7917 16.6667 39.1667 16.6667C37.7083 16.6667 36.475 16.1625 35.4667 15.1542C34.4611 14.1486 33.9583 12.9167 33.9583 11.4583C33.9583 10.6944 34.0806 10.0514 34.325 9.52917C34.5667 9.00972 34.9306 8.64583 35.4167 8.4375C34.0972 8.57639 32.8125 8.75 31.5625 8.95833C30.3125 9.16667 29.0972 9.51389 27.9167 10C27.8472 10.2083 27.7958 10.4514 27.7625 10.7292C27.7264 11.0069 27.7083 11.25 27.7083 11.4583C27.7083 14.5833 28.8375 17.275 31.0958 19.5333C33.3514 21.7889 36.0417 22.9167 39.1667 22.9167Z" fill="white"/>
</svg>
