<svg width="150" height="150" viewBox="0 0 150 150" fill="none" xmlns="http://www.w3.org/2000/svg">
<path d="M118.75 18.75H31.25C24.375 18.75 18.75 24.375 18.75 31.25V118.75C18.75 125.625 24.375 131.25 31.25 131.25H118.75C125.625 131.25 131.25 125.625 131.25 118.75V31.25C131.25 24.375 125.625 18.75 118.75 18.75ZM81.4375 44.125L88.0625 37.5L96.875 46.3125L105.688 37.5L112.312 44.125L103.5 52.9375L112.312 61.75L105.688 68.375L96.875 59.625L88.0625 68.4375L81.4375 61.8125L90.25 53L81.4375 44.125ZM39.0625 48.25H70.3125V57.625H39.0625V48.25ZM71.875 100H59.375V112.5H50V100H37.5V90.625H50V78.125H59.375V90.625H71.875V100ZM112.5 107.812H81.25V98.4375H112.5V107.812ZM112.5 92.1875H81.25V82.8125H112.5V92.1875Z" fill="white"/>
</svg>
