<svg width="79" height="94" viewBox="0 0 79 94" fill="none" xmlns="http://www.w3.org/2000/svg">
<path d="M62.0641 53.5859C61.6422 51.2719 61.175 48.8703 60.7172 46.5266C59.5328 40.4594 58.3094 34.1859 58.3094 31.2766C58.3078 9.64531 52.3719 0 39.0594 0C25.7484 0 19.8125 9.64531 19.8125 31.2781C19.8125 34.1906 18.5875 40.4703 17.4016 46.5438C16.9469 48.8812 16.4797 51.2781 16.0594 53.5875C7.07656 54.3359 0 61.8078 0 70.8859C0 79.3281 8.23906 86.4891 14.15 87.9078C14.7859 88.0609 15.5234 88.1359 16.4078 88.1359C18.0828 88.1359 20.3219 87.8469 22.0766 87.4937C26.7906 91.5437 32.7484 93.75 39.0594 93.75C45.3734 93.75 51.3312 91.5422 56.0438 87.4922C57.8 87.8453 60.0406 88.1344 61.7172 88.1344C62.6031 88.1344 63.3406 88.0594 63.975 87.9062C69.8844 86.4906 78.125 79.3297 78.125 70.8859C78.125 61.8078 71.0453 54.3328 62.0641 53.5859ZM63.1609 84.4C62.686 84.4967 62.2018 84.5402 61.7172 84.5297C59.7469 84.5297 57.0062 84.0609 55.6906 83.7172C57.0359 83.0031 58.7188 82.2625 60.5266 81.8797C70.1 79.8391 65.9437 75.3562 59.5391 77.3984C54.5109 79.0016 52.9062 85.1 52.8125 85.4656C48.8718 88.5034 44.035 90.1486 39.0594 90.1438C34.0871 90.149 29.2533 88.5061 25.3141 85.4719C25.2375 85.1703 23.6422 79.0109 18.5844 77.3984C12.1812 75.3562 8.025 79.8406 17.5984 81.8797C19.4031 82.2625 21.0859 83.0047 22.4328 83.7172C21.1203 84.0594 18.375 84.5297 16.4078 84.5297C15.8453 84.5297 15.3437 84.4906 14.9656 84.4C10.7 83.3766 3.55 77.6172 3.55 70.8875C3.55 63.2922 9.81563 57.1312 17.5438 57.1312C18.0469 57.1312 18.5438 57.1594 19.0312 57.2109C20.5562 48.0391 23.3609 36.2453 23.3609 31.2781C23.3609 7.96406 30.3875 3.60625 39.0578 3.60625C47.7359 3.60625 54.7562 7.96406 54.7562 31.2781C54.7562 36.2437 57.5625 48.0391 59.0875 57.2125C59.5766 57.1594 60.075 57.1312 60.5781 57.1312C68.3063 57.1312 74.5719 63.2906 74.5719 70.8875C74.575 77.6172 67.425 83.3766 63.1609 84.4Z" fill="white"/>
</svg>
