<svg width="90" height="90" viewBox="0 0 90 90" fill="none" xmlns="http://www.w3.org/2000/svg">
<path fill-rule="evenodd" clip-rule="evenodd" d="M31.7647 4.5H26.4706V9H39.7059V13.5H26.4706V18.1868C33.9829 19.2577 39.7059 24.8107 39.7059 31.5V36H7.94118V31.5C7.94167 28.3096 9.27103 25.2223 11.6937 22.7854C14.1163 20.3485 17.4757 18.7194 21.1765 18.1868V13.5H15.4324C14.8073 15.0011 13.5782 16.2661 11.9622 17.0716C10.3462 17.877 8.44725 18.1712 6.60087 17.902C4.75448 17.6328 3.07943 16.8176 1.8716 15.6004C0.663764 14.3832 0.000869122 12.8423 8.82084e-06 11.25C-0.00278513 9.65593 0.65823 8.11245 1.86598 6.89294C3.07373 5.67343 4.75027 4.85659 6.59866 4.5871C8.44705 4.31761 10.348 4.61286 11.9648 5.42055C13.5817 6.22824 14.81 7.49625 15.4324 9H21.1765V4.5H15.8824V0H31.7647V4.5ZM7.94118 40.5V87.75C7.94118 88.3467 8.22007 88.919 8.71649 89.341C9.21291 89.7629 9.8862 90 10.5882 90H37.0588C37.7609 90 38.4342 89.7629 38.9306 89.341C39.427 88.919 39.7059 88.3467 39.7059 87.75V40.5H7.94118ZM7.94118 9C7.23914 9 6.56585 9.23705 6.06943 9.65901C5.57301 10.081 5.29413 10.6533 5.29413 11.25C5.29413 11.8467 5.57301 12.419 6.06943 12.841C6.56585 13.2629 7.23914 13.5 7.94118 13.5C8.64323 13.5 9.31652 13.2629 9.81294 12.841C10.3094 12.419 10.5882 11.8467 10.5882 11.25C10.5882 10.6533 10.3094 10.081 9.81294 9.65901C9.31652 9.23705 8.64323 9 7.94118 9ZM50.2941 38.25C50.2941 35.8631 51.4097 33.5739 53.3953 31.886C55.381 30.1982 58.0742 29.25 60.8824 29.25C63.6905 29.25 66.3837 30.1982 68.3694 31.886C70.355 33.5739 71.4706 35.8631 71.4706 38.25V51.75C71.4706 54.1369 70.355 56.4261 68.3694 58.114C66.3837 59.8018 63.6905 60.75 60.8824 60.75C58.0742 60.75 55.381 59.8018 53.3953 58.114C51.4097 56.4261 50.2941 54.1369 50.2941 51.75V38.25ZM60.8824 33.75C59.4783 33.75 58.1317 34.2241 57.1389 35.068C56.146 35.9119 55.5882 37.0565 55.5882 38.25V51.75C55.5882 52.9435 56.146 54.0881 57.1389 54.932C58.1317 55.7759 59.4783 56.25 60.8824 56.25C62.2864 56.25 63.633 55.7759 64.6259 54.932C65.6187 54.0881 66.1765 52.9435 66.1765 51.75V38.25C66.1765 37.0565 65.6187 35.9119 64.6259 35.068C63.633 34.2241 62.2864 33.75 60.8824 33.75ZM74.1176 49.5H82.0588C82.7609 49.5 83.4342 49.7371 83.9306 50.159C84.427 50.581 84.7059 51.1533 84.7059 51.75C84.7059 52.3467 84.427 52.919 83.9306 53.341C83.4342 53.7629 82.7609 54 82.0588 54C79.9527 54 77.9328 54.7112 76.4436 55.977C74.9543 57.2429 74.1176 58.9598 74.1176 60.75V65.25C74.1176 65.8467 74.3965 66.419 74.893 66.841C75.3894 67.2629 76.0627 67.5 76.7647 67.5H90V63H79.4118V60.75C79.4118 60.1533 79.6907 59.581 80.1871 59.159C80.6835 58.7371 81.3568 58.5 82.0588 58.5C84.165 58.5 86.1848 57.7888 87.6741 56.523C89.1633 55.2571 90 53.5402 90 51.75C90 49.9598 89.1633 48.2429 87.6741 46.977C86.1848 45.7112 84.165 45 82.0588 45H74.1176V49.5Z" fill="white"/>
</svg>
