<svg width="90" height="90" viewBox="0 0 90 90" fill="none" xmlns="http://www.w3.org/2000/svg">
<path d="M88.6113 12.4857L77.3613 1.23572C75.7134 -0.412231 73.0441 -0.412231 71.3953 1.23572C69.7465 2.88367 69.7473 5.55291 71.3953 7.20173L74.1972 9.84373L67.5 16.534L57.8267 6.86072C56.1788 5.21277 53.5095 5.21277 51.8607 6.86072C50.3724 8.34906 50.301 10.6347 51.5009 12.2853L77.7099 38.4943C78.4511 39.041 79.2949 39.375 80.1562 39.375C80.7103 39.3756 81.2591 39.2667 81.771 39.0546C82.283 38.8425 82.7479 38.5314 83.1392 38.1391C84.7872 36.4911 84.7872 33.8219 83.1392 32.173L73.459 22.5L80.1562 15.8097L82.7982 18.4517C83.6191 19.2832 84.709 19.6875 85.7812 19.6875C86.8535 19.6875 87.9398 19.2754 88.7642 18.4516C90.4043 16.8029 90.4043 14.1345 88.6113 12.4857ZM36.7031 27.0879L46.9968 37.3816C48.0955 38.4803 48.0955 40.2609 46.9968 41.3578C46.4414 41.9062 45.7207 42.1875 45 42.1875C44.2793 42.1875 43.5586 41.9062 43.0136 41.3613L32.7129 31.0781L25.4531 38.3379L35.7468 48.6316C36.8455 49.7303 36.8455 51.5109 35.7468 52.6078C35.1914 53.1562 34.4707 53.4375 33.75 53.4375C33.0293 53.4375 32.3086 53.1562 31.7636 52.6113L21.4629 42.3281L14.5459 49.2363C12.4347 51.3457 11.25 54.2109 11.25 57.1992V72.7875L1.23572 82.8017C-0.412231 84.4497 -0.412231 87.1189 1.23572 88.7677C2.06013 89.5957 3.13943 90 4.21873 90C5.29802 90 6.37732 89.5879 7.20173 88.7641L17.216 78.75H32.806C35.789 78.75 38.6508 77.5645 40.7619 75.4541L73.7384 42.4775L47.5295 16.2685L36.7031 27.0879Z" fill="white"/>
</svg>
